<svg width="176" height="60" viewBox="0 0 176 60" fill="none" xmlns="http://www.w3.org/2000/svg">
<g filter="url(#filter0_d)">
<path d="M33.1312 49.6484C33.1312 49.9609 33.0401 50.2214 32.8578 50.4297C32.6755 50.6641 32.4542 50.8464 32.1937 50.9766C31.9333 51.1328 31.6599 51.263 31.3734 51.3672C31.087 51.4974 30.8396 51.6276 30.6312 51.7578C30.0323 51.6276 29.4073 51.5104 28.7562 51.4062C28.1052 51.3281 27.5193 51.1589 26.9984 50.8984C25.9307 49.7266 25.1755 48.3724 24.7328 46.8359C24.3161 45.3255 24.0427 43.8151 23.9125 42.3047C23.8604 41.862 23.8344 41.4323 23.8344 41.0156C23.8344 40.5729 23.8083 40.1302 23.7562 39.6875C23.7042 39.2969 23.4698 39.0625 23.0531 38.9844C23.3656 38.9323 23.587 38.776 23.7172 38.5156C23.8474 38.2292 23.9255 37.9167 23.9516 37.5781C23.9776 37.2135 23.9776 36.862 23.9516 36.5234C23.9516 36.1589 23.9776 35.8594 24.0297 35.625C23.8214 35.7031 23.6391 35.8854 23.4828 36.1719C23.3266 36.4323 23.1833 36.7318 23.0531 37.0703C22.9229 37.4089 22.7927 37.7474 22.6625 38.0859C22.5583 38.3984 22.4542 38.6458 22.35 38.8281C21.2562 40.7031 19.9802 42.4089 18.5219 43.9453C17.0896 45.4818 15.6052 47.0052 14.0687 48.5156C13.626 48.6719 13.2094 48.8672 12.8187 49.1016C12.4281 49.362 12.0635 49.6354 11.725 49.9219C10.7354 50.2083 9.79792 50.3516 8.9125 50.3516C8.10521 50.3516 7.31094 50.2344 6.52969 50C5.74844 49.7917 5.04531 49.4271 4.42031 48.9062L2.975 45.625C2.89687 45.4167 2.80573 45.2083 2.70156 45C2.59739 44.7656 2.51927 44.5443 2.46719 44.3359C2.4151 44.1016 2.38906 43.8542 2.38906 43.5938C2.4151 43.3073 2.42812 43.0599 2.42812 42.8516C2.42812 41.9401 2.45417 41.0286 2.50625 40.1172C2.58437 39.1797 2.68854 38.2552 2.81875 37.3438C2.87083 36.9792 2.94896 36.6016 3.05312 36.2109C3.15729 35.8203 3.23542 35.4427 3.2875 35.0781V34.6484C3.2875 34.5182 3.27448 34.362 3.24844 34.1797C3.22239 33.9714 3.14427 33.8411 3.01406 33.7891C3.63906 32.2786 3.95156 30.7031 3.95156 29.0625C3.95156 28.8021 3.93854 28.5547 3.9125 28.3203C3.9125 28.0599 3.89948 27.7995 3.87344 27.5391C4.05573 27.3568 4.17292 27.1484 4.225 26.9141C4.27708 26.6536 4.30312 26.3932 4.30312 26.1328C4.30312 25.8464 4.30312 25.5729 4.30312 25.3125C4.32917 25.0521 4.40729 24.8047 4.5375 24.5703C4.51146 24.2839 4.48542 24.0104 4.45937 23.75C4.45937 23.4635 4.45937 23.1771 4.45937 22.8906C4.45937 21.1458 4.58958 19.4271 4.85 17.7344C5.13646 16.0156 5.27969 14.2839 5.27969 12.5391V10.8984C5.27969 10.5339 5.27969 10.1562 5.27969 9.76562C5.30573 9.375 5.35781 8.9974 5.43594 8.63281C5.5401 8.26823 5.68333 7.92969 5.86562 7.61719C6.04792 7.27865 6.30833 6.99219 6.64687 6.75781C6.69896 6.75781 6.73802 6.75781 6.76406 6.75781C6.81614 6.73177 6.86823 6.71875 6.92031 6.71875C7.15469 6.71875 7.33698 6.78385 7.46719 6.91406C7.59739 7.01823 7.79271 7.05729 8.05312 7.03125C8.52187 7.70833 8.88646 8.42448 9.14687 9.17969C9.43333 9.9349 9.57656 10.7292 9.57656 11.5625C9.57656 12.1875 9.48542 12.7995 9.30312 13.3984C9.12083 13.9974 9.02969 14.6224 9.02969 15.2734C9.02969 15.5339 9.04271 15.7943 9.06875 16.0547C9.09479 16.3151 9.10781 16.5755 9.10781 16.8359C9.10781 17.0964 9.06875 17.3568 8.99062 17.6172C8.93854 17.8516 8.82135 18.0599 8.63906 18.2422C8.69114 18.763 8.73021 19.2969 8.75625 19.8438C8.78229 20.3646 8.79531 20.8854 8.79531 21.4062C8.79531 22.8906 8.70417 24.375 8.52187 25.8594C8.33958 27.3438 8.13125 28.8281 7.89687 30.3125C7.6625 31.7969 7.45417 33.2812 7.27187 34.7656C7.08958 36.25 6.99844 37.7474 6.99844 39.2578V40.3906C6.99844 40.7552 7.02448 41.1328 7.07656 41.5234C6.92031 41.888 6.84219 42.2786 6.84219 42.6953C6.84219 43.2682 6.97239 43.8281 7.23281 44.375C7.49323 44.9219 7.80573 45.4167 8.17031 45.8594C8.30052 45.8854 8.41771 45.8984 8.52187 45.8984C8.65208 45.9245 8.78229 45.9375 8.9125 45.9375C9.58958 45.9375 10.1885 45.7943 10.7094 45.5078C11.2562 45.2214 11.7641 44.8698 12.2328 44.4531C12.7276 44.0365 13.2094 43.6068 13.6781 43.1641C14.1469 42.7214 14.6547 42.3568 15.2016 42.0703C16.0349 41.0026 16.8161 39.9349 17.5453 38.8672C18.2745 37.7734 18.9776 36.6406 19.6547 35.4688C19.7068 34.8438 19.863 34.2188 20.1234 33.5938C20.4099 32.9427 20.6964 32.3047 20.9828 31.6797C21.2953 31.0547 21.5687 30.4427 21.8031 29.8438C22.0635 29.2448 22.1937 28.6719 22.1937 28.125C22.1937 27.8385 22.1026 27.6432 21.9203 27.5391C22.1807 26.862 22.376 26.1589 22.5062 25.4297C22.6365 24.7005 22.7406 23.9714 22.8187 23.2422C22.9229 22.513 23.0271 21.7969 23.1312 21.0938C23.2354 20.3646 23.3917 19.6484 23.6 18.9453C23.6 18.7891 23.587 18.6328 23.5609 18.4766C23.5609 18.3203 23.5609 18.1641 23.5609 18.0078C23.5609 16.8099 23.6781 15.638 23.9125 14.4922C24.1469 13.3203 24.2641 12.1354 24.2641 10.9375C24.2641 10.651 24.238 10.3906 24.1859 10.1562C24.1599 9.89583 24.1469 9.64844 24.1469 9.41406C24.1469 9.20573 24.212 9.07552 24.3422 9.02344C24.4984 8.97135 24.5766 8.82812 24.5766 8.59375C24.5766 8.38542 24.5505 8.16406 24.4984 7.92969C24.4724 7.69531 24.4594 7.44792 24.4594 7.1875C24.4594 6.38021 24.5375 5.58594 24.6937 4.80469C24.85 4.02344 24.9281 3.22917 24.9281 2.42188V1.95312C24.9281 1.77083 24.9021 1.60156 24.85 1.44531C25.0323 1.15885 25.2797 0.976562 25.5922 0.898438C25.9047 0.794271 26.2042 0.742188 26.4906 0.742188C26.9594 0.742188 27.35 0.794271 27.6625 0.898438C28.1573 2.22656 28.574 3.59375 28.9125 5C29.251 6.38021 29.5245 7.78646 29.7328 9.21875C29.7849 9.55729 29.85 9.92188 29.9281 10.3125C30.0323 10.6771 30.0844 11.0417 30.0844 11.4062C30.0844 11.4844 30.0583 11.5755 30.0062 11.6797C29.9802 11.7839 29.9542 11.888 29.9281 11.9922C29.9021 12.2005 29.876 12.4089 29.85 12.6172C29.85 12.8255 29.85 13.0339 29.85 13.2422C29.85 13.8672 29.8891 14.4922 29.9672 15.1172C30.0453 15.7422 30.0844 16.3802 30.0844 17.0312C30.0844 17.7604 29.9802 18.4635 29.7719 19.1406C29.5896 19.7917 29.4464 20.4818 29.3422 21.2109C29.238 21.9661 29.199 22.7083 29.225 23.4375C29.251 24.1667 29.199 24.9089 29.0687 25.6641C29.0167 25.9766 28.9385 26.2891 28.8344 26.6016C28.7302 26.888 28.6781 27.2005 28.6781 27.5391C28.6781 27.7734 28.6911 28.0078 28.7172 28.2422C28.7693 28.4766 28.7953 28.724 28.7953 28.9844C28.7953 29.375 28.7042 29.6745 28.5219 29.8828C28.574 30.0911 28.613 30.2865 28.6391 30.4688C28.6651 30.625 28.7172 30.8073 28.7953 31.0156C28.6651 31.1719 28.574 31.3411 28.5219 31.5234C28.4698 31.7057 28.4437 31.901 28.4437 32.1094C28.4437 32.3698 28.4568 32.6172 28.4828 32.8516C28.5089 33.0599 28.5219 33.2812 28.5219 33.5156C28.5219 34.0625 28.4307 34.5833 28.2484 35.0781C28.0922 35.5729 27.988 36.0807 27.9359 36.6016C27.9099 36.9661 27.8969 37.3307 27.8969 37.6953C27.9229 38.0339 27.9359 38.3854 27.9359 38.75C27.9359 39.1406 27.9099 39.5182 27.8578 39.8828C27.8318 40.2474 27.7276 40.612 27.5453 40.9766C27.5974 41.1328 27.6625 41.2891 27.7406 41.4453C27.8187 41.6016 27.9359 41.7188 28.0922 41.7969C28.0922 42.6042 28.1964 43.4245 28.4047 44.2578C28.6391 45.0651 28.9516 45.8333 29.3422 46.5625C29.4203 46.7188 29.5375 46.8359 29.6937 46.9141C29.85 46.9922 29.9932 47.0703 30.1234 47.1484C30.2536 47.2526 30.3578 47.3698 30.4359 47.5C30.5141 47.6302 30.5271 47.8255 30.475 48.0859C30.5271 48.112 30.6052 48.125 30.7094 48.125C30.9177 48.125 31.087 48.0729 31.2172 47.9688C31.3734 47.8646 31.5557 47.8125 31.7641 47.8125H32.0375C32.2719 48.0469 32.5062 48.3203 32.7406 48.6328C33.001 48.9453 33.1312 49.2839 33.1312 49.6484ZM61.7297 34.9609C61.7297 35.2474 61.6255 35.4688 61.4172 35.625C61.2089 35.7552 61.1047 35.9375 61.1047 36.1719C61.1047 36.276 61.1568 36.4062 61.2609 36.5625C60.8964 36.5625 60.649 36.6797 60.5187 36.9141C60.3885 37.1484 60.2583 37.4089 60.1281 37.6953H59.6203C59.4901 37.6953 59.3859 37.7214 59.3078 37.7734C59.2297 37.8255 59.1516 37.9036 59.0734 38.0078C59.0214 38.0859 58.9432 38.2161 58.8391 38.3984C58.3443 38.5026 57.8625 38.6719 57.3937 38.9062C56.951 39.1146 56.5083 39.349 56.0656 39.6094C55.649 39.8438 55.2193 40.0911 54.7766 40.3516C54.3339 40.5859 53.8781 40.7812 53.4094 40.9375C53.175 41.3281 52.8365 41.6406 52.3937 41.875H52.2766C52.1464 41.901 52.0292 41.888 51.925 41.8359C51.8469 41.7578 51.7427 41.7188 51.6125 41.7188C51.5344 41.7188 51.4823 41.7318 51.4562 41.7578C50.675 42.2786 49.8026 42.5391 48.8391 42.5391C48.5786 42.5391 48.3312 42.526 48.0969 42.5C47.8625 42.4479 47.6151 42.4219 47.3547 42.4219C47.2766 42.4219 47.2245 42.4479 47.1984 42.5L47.1203 42.6562C47.0943 42.7083 47.0552 42.7604 47.0031 42.8125C46.9771 42.8646 46.8859 42.8906 46.7297 42.8906C46.4432 42.8906 46.1568 42.8516 45.8703 42.7734C45.5839 42.6953 45.2844 42.6823 44.9719 42.7344C44.3729 42.3958 43.9042 42.0703 43.5656 41.7578C43.2271 41.4453 42.9146 40.9766 42.6281 40.3516C42.4979 40.0651 42.3156 39.7917 42.0812 39.5312C41.8729 39.2708 41.7167 38.9844 41.6125 38.6719C41.5865 38.5677 41.5474 38.3854 41.4953 38.125C41.4432 37.8385 41.3911 37.5391 41.3391 37.2266C41.287 36.9141 41.2349 36.6146 41.1828 36.3281C41.1568 36.0417 41.1437 35.8464 41.1437 35.7422C41.1437 35.4297 41.1568 35.1302 41.1828 34.8438C41.2349 34.5312 41.287 34.2188 41.3391 33.9062C41.4953 32.9167 41.5995 31.9271 41.6516 30.9375C41.7297 29.9219 41.951 28.9453 42.3156 28.0078C42.2635 27.7214 42.2375 27.4479 42.2375 27.1875V26.3281C42.2375 25.8333 42.1724 25.4167 42.0422 25.0781C42.2505 24.7396 42.3547 24.362 42.3547 23.9453C42.3547 23.4766 42.1594 23.2031 41.7687 23.125V23.0078C41.7687 22.4609 41.5865 22.0312 41.2219 21.7188C41.2219 20.8073 41.4432 20.1302 41.8859 19.6875C42.3547 19.2188 42.9667 18.8151 43.7219 18.4766C43.826 18.3203 43.8651 18.1901 43.8391 18.0859C44.0214 18.138 44.1906 18.1901 44.3469 18.2422C44.5031 18.2943 44.6594 18.3203 44.8156 18.3203C45.076 18.3203 45.3104 18.2812 45.5187 18.2031C45.5969 18.5156 45.7922 18.7109 46.1047 18.7891C46.4432 18.8411 46.7167 18.9193 46.925 19.0234V19.5312C46.925 20.3385 47.1203 21.1068 47.5109 21.8359C47.4068 22.0443 47.3417 22.2656 47.3156 22.5C47.2896 22.7344 47.2766 22.9557 47.2766 23.1641C47.2766 23.4766 47.2896 23.7891 47.3156 24.1016C47.3417 24.4141 47.3547 24.7135 47.3547 25C47.3547 25.3125 47.3156 25.625 47.2375 25.9375C47.1854 26.25 47.0422 26.5234 46.8078 26.7578C46.7818 27.0964 46.7557 27.487 46.7297 27.9297C46.7297 28.3464 46.7036 28.776 46.6516 29.2188C46.6255 29.6615 46.5604 30.0911 46.4562 30.5078C46.3521 30.9245 46.1958 31.263 45.9875 31.5234C45.9615 31.9141 45.9354 32.3177 45.9094 32.7344C45.9094 33.125 45.9094 33.5026 45.9094 33.8672C45.9094 34.4401 45.9354 35.1172 45.9875 35.8984C46.0656 36.6797 46.2479 37.3307 46.5344 37.8516C46.6646 38.0599 46.912 38.2161 47.2766 38.3203C47.6672 38.4245 47.9797 38.4766 48.2141 38.4766C48.5005 38.4766 48.787 38.4375 49.0734 38.3594C49.3859 38.2552 49.6073 38.0859 49.7375 37.8516C49.8937 37.8776 49.9979 37.9557 50.05 38.0859C50.1021 38.2161 50.1932 38.3203 50.3234 38.3984C51.8078 37.7734 53.2922 37.1745 54.7766 36.6016C56.2609 36.0286 57.7193 35.3646 59.1516 34.6094C59.3599 34.7135 59.5812 34.7656 59.8156 34.7656C60.076 34.7656 60.3365 34.7396 60.5969 34.6875C60.8573 34.6354 61.1177 34.6094 61.3781 34.6094H61.6516C61.7036 34.7656 61.7297 34.8828 61.7297 34.9609ZM95.7188 42.1484C95.6406 42.513 95.4714 42.8125 95.2109 43.0469C94.9766 43.2552 94.6901 43.4245 94.3516 43.5547C94.013 43.6849 93.6615 43.776 93.2969 43.8281C92.9583 43.8542 92.6458 43.8672 92.3594 43.8672C92.2292 43.8672 92.099 43.8672 91.9688 43.8672C91.8646 43.8411 91.7474 43.8281 91.6172 43.8281C91.487 43.8281 91.4219 43.8932 91.4219 44.0234C91.4219 44.1536 91.3568 44.2448 91.2266 44.2969C91.0964 44.2448 90.9661 44.2057 90.8359 44.1797C90.7057 44.1536 90.5755 44.1406 90.4453 44.1406C90.263 44.1406 90.0807 44.1536 89.8984 44.1797C89.7422 44.2057 89.5859 44.2188 89.4297 44.2188C89.2214 44.2188 89.0651 44.1927 88.9609 44.1406C88.8828 44.0885 88.8047 44.0365 88.7266 43.9844C88.6745 43.9062 88.6094 43.8281 88.5312 43.75C88.4792 43.6719 88.388 43.6068 88.2578 43.5547C88.0755 43.4766 87.9193 43.4635 87.7891 43.5156C87.6849 43.5677 87.5156 43.4896 87.2812 43.2812C86.9688 43.0208 86.6953 42.7083 86.4609 42.3438C86.2526 41.9531 86.0443 41.5495 85.8359 41.1328C85.6276 40.7161 85.4062 40.2995 85.1719 39.8828C84.9375 39.4661 84.6641 39.1016 84.3516 38.7891H84.0391C83.5703 38.7891 83.2448 38.9844 83.0625 39.375C82.9323 39.2969 82.8021 39.2057 82.6719 39.1016C82.5417 38.9714 82.3984 38.8672 82.2422 38.7891C81.6432 38.9714 81.0182 39.1276 80.3672 39.2578C79.7161 39.388 79.0651 39.4531 78.4141 39.4531H77.8672C77.7109 39.4531 77.5417 39.4271 77.3594 39.375C77.099 39.4792 76.8646 39.6094 76.6562 39.7656C76.4479 39.8958 76.2135 39.9609 75.9531 39.9609C75.7969 39.9609 75.6146 39.9089 75.4062 39.8047C75.25 39.8047 75.1719 39.8698 75.1719 40C75.1979 40.1302 75.1198 40.1953 74.9375 40.1953H74.5859C74.2214 40.1953 73.8568 40.2083 73.4922 40.2344C73.1536 40.2604 72.8021 40.2734 72.4375 40.2734C71.9427 40.2734 71.4349 40.2083 70.9141 40.0781C70.7839 40.1562 70.6406 40.1953 70.4844 40.1953C70.3802 40.2474 70.3021 40.3385 70.25 40.4688C70.1979 40.5729 70.1458 40.6771 70.0938 40.7812C70.0417 40.8594 69.9635 40.9375 69.8594 41.0156C69.7812 41.0677 69.6641 41.0807 69.5078 41.0547C69.4557 41.3672 69.3255 41.6146 69.1172 41.7969C68.9089 41.9792 68.8047 42.2526 68.8047 42.6172C68.5182 42.7734 68.2839 42.9688 68.1016 43.2031C67.9193 43.4375 67.737 43.6849 67.5547 43.9453C67.3724 44.2057 67.1771 44.4531 66.9688 44.6875C66.7865 44.9219 66.5521 45.1042 66.2656 45.2344C66.1354 45.3906 66.0964 45.638 66.1484 45.9766C65.862 46.2109 65.5104 46.4193 65.0938 46.6016C64.6771 46.7839 64.2865 46.875 63.9219 46.875C63.1667 46.875 62.6458 46.4714 62.3594 45.6641C62.3594 45.4036 62.3854 45.1302 62.4375 44.8438C62.4635 44.5312 62.5156 44.2448 62.5938 43.9844C62.6719 43.6979 62.7891 43.4505 62.9453 43.2422C63.1016 43.0078 63.3229 42.8385 63.6094 42.7344C63.6094 42.5 63.5312 42.3438 63.375 42.2656C63.2188 42.1615 63.1536 41.9922 63.1797 41.7578C63.8828 41.4193 64.4948 40.9766 65.0156 40.4297C65.5365 39.8828 66.0052 39.3099 66.4219 38.7109C66.8646 38.0859 67.3073 37.4609 67.75 36.8359C68.1927 36.2109 68.6875 35.651 69.2344 35.1562V34.3359C70.0156 33.5026 70.5234 32.5651 70.7578 31.5234C71.0443 31.4714 71.2266 31.3411 71.3047 31.1328C71.4089 30.9245 71.4609 30.6771 71.4609 30.3906C71.5911 30.3906 71.6693 30.3385 71.6953 30.2344C71.7474 30.1042 71.8646 30.0651 72.0469 30.1172C72.2812 29.4922 72.5417 28.9193 72.8281 28.3984C73.1146 27.8776 73.401 27.3568 73.6875 26.8359C73.974 26.2891 74.2214 25.7292 74.4297 25.1562C74.6641 24.5833 74.8333 23.9453 74.9375 23.2422C75.3021 23.2161 75.4974 23.0469 75.5234 22.7344C75.5755 22.3958 75.6276 22.0964 75.6797 21.8359C76.0703 21.4714 76.3568 21.0417 76.5391 20.5469C76.7474 20.0521 76.9297 19.5443 77.0859 19.0234C77.2422 18.4766 77.4115 17.9427 77.5938 17.4219C77.8021 16.875 78.0885 16.3932 78.4531 15.9766V15.8594C78.4531 15.7292 78.401 15.651 78.2969 15.625C78.1927 15.5729 78.1406 15.4818 78.1406 15.3516C78.1667 15.3255 78.1797 15.2995 78.1797 15.2734C78.4922 15.1432 78.7266 14.9349 78.8828 14.6484C79.0391 14.3359 79.2734 14.1146 79.5859 13.9844C80.1328 14.4271 80.6146 14.7005 81.0312 14.8047C81.4479 14.8828 81.9948 14.9479 82.6719 15C83.0104 15.3646 83.1927 15.8073 83.2188 16.3281C83.2708 16.8229 83.362 17.3177 83.4922 17.8125C83.7005 18.6458 83.9219 19.4661 84.1562 20.2734C84.4167 21.0547 84.612 21.862 84.7422 22.6953C84.8203 23.1901 84.9635 23.6589 85.1719 24.1016C85.3802 24.5443 85.5234 25 85.6016 25.4688C85.6536 25.8333 85.6536 26.25 85.6016 26.7188C85.5495 27.1615 85.6016 27.5521 85.7578 27.8906L86.0312 28.5156C86.1615 28.8021 86.2656 29.1016 86.3438 29.4141C86.4479 29.7266 86.5391 30.0391 86.6172 30.3516C86.8255 31.1328 87.0078 31.9792 87.1641 32.8906C87.3464 33.776 87.6198 34.5833 87.9844 35.3125C88.1146 35.5729 88.3099 35.7552 88.5703 35.8594C88.8568 35.9635 89.1693 36.0417 89.5078 36.0938C89.8464 36.1198 90.1719 36.1328 90.4844 36.1328C90.8229 36.1068 91.1094 36.0938 91.3438 36.0938H91.7344C91.8906 36.0938 92.0469 36.1198 92.2031 36.1719C92.3073 36.3802 92.3594 36.5625 92.3594 36.7188C92.3594 37.0312 92.2552 37.2786 92.0469 37.4609C91.8385 37.6432 91.7344 37.8516 91.7344 38.0859C91.7344 38.2161 91.7865 38.3594 91.8906 38.5156C91.7865 38.4896 91.6302 38.4766 91.4219 38.4766C90.8229 38.4766 90.237 38.5807 89.6641 38.7891C89.8724 39.2318 90.1458 39.6094 90.4844 39.9219C90.849 40.2083 91.2266 40.4818 91.6172 40.7422C91.8776 40.5339 92.151 40.4297 92.4375 40.4297C92.75 40.4297 93.0365 40.5078 93.2969 40.6641C93.5833 40.7943 93.8828 40.8594 94.1953 40.8594C94.4297 40.8594 94.599 40.8203 94.7031 40.7422C94.9115 40.9766 95.0807 41.224 95.2109 41.4844C95.3411 41.7188 95.5104 41.9401 95.7188 42.1484ZM83.4922 35.8984C83.4401 35.4557 83.349 35.1432 83.2188 34.9609C83.1146 34.7526 83.0234 34.5052 82.9453 34.2188C82.8411 33.8542 82.763 33.4635 82.7109 33.0469C82.6849 32.6302 82.6328 32.2266 82.5547 31.8359C82.3724 30.9505 82.1641 30.0651 81.9297 29.1797C81.7214 28.2943 81.4479 27.4349 81.1094 26.6016C81.2135 26.4453 81.2656 26.3021 81.2656 26.1719V26.0547C81.0312 25.7943 80.862 25.4818 80.7578 25.1172C80.6536 24.7266 80.5495 24.349 80.4453 23.9844C80.3672 23.5938 80.25 23.2422 80.0938 22.9297C79.9635 22.5911 79.7422 22.3177 79.4297 22.1094C79.3516 22.2656 79.3125 22.4479 79.3125 22.6562C79.3125 22.8385 79.3255 23.0078 79.3516 23.1641C79.4036 23.3203 79.4297 23.4896 79.4297 23.6719C79.1693 23.8021 78.974 24.0104 78.8438 24.2969C78.7396 24.5573 78.5573 24.7656 78.2969 24.9219C78.0885 25.7552 77.7891 26.5495 77.3984 27.3047C77.0078 28.0339 76.5911 28.763 76.1484 29.4922C75.7318 30.2214 75.3281 30.9635 74.9375 31.7188C74.5469 32.4479 74.2344 33.2161 74 34.0234C73.6615 34.2578 73.4271 34.5573 73.2969 34.9219C73.1927 35.2865 73.1406 35.651 73.1406 36.0156C73.375 36.1458 73.6354 36.224 73.9219 36.25C74.2344 36.25 74.5339 36.25 74.8203 36.25C75.1068 36.25 75.3802 36.276 75.6406 36.3281C75.901 36.3802 76.1354 36.5104 76.3438 36.7188C76.6823 36.6146 77.0469 36.5495 77.4375 36.5234C77.8542 36.4714 78.1927 36.3542 78.4531 36.1719C78.974 36.3542 79.5339 36.4453 80.1328 36.4453C80.4453 36.4453 80.7448 36.4193 81.0312 36.3672C81.3438 36.3151 81.6432 36.25 81.9297 36.1719C82.1641 36.224 82.3464 36.3151 82.4766 36.4453C82.6068 36.5495 82.8021 36.5885 83.0625 36.5625C83.1927 36.4583 83.2708 36.3542 83.2969 36.25C83.3229 36.1198 83.388 36.0026 83.4922 35.8984ZM149.786 38.2031C149.734 38.5938 149.591 38.8932 149.356 39.1016C149.148 39.3099 148.901 39.5052 148.614 39.6875C148.484 39.6615 148.354 39.6484 148.223 39.6484C148.119 39.6224 148.002 39.6094 147.872 39.6094C147.065 39.5833 146.296 39.6875 145.567 39.9219C144.864 40.1562 144.135 40.3255 143.38 40.4297C143.119 40.4818 142.872 40.5078 142.637 40.5078C142.429 40.4818 142.208 40.4948 141.973 40.5469C141.14 40.6771 140.255 40.7812 139.317 40.8594C138.38 40.9375 137.442 41.0417 136.505 41.1719C135.567 41.276 134.643 41.4193 133.731 41.6016C132.846 41.7578 132.012 41.9922 131.231 42.3047C131.153 42.2526 131.075 42.2005 130.997 42.1484C130.919 42.0703 130.828 42.0312 130.723 42.0312C130.463 42.0312 130.216 42.0703 129.981 42.1484C129.747 42.2266 129.512 42.2526 129.278 42.2266C129.018 42.3828 128.731 42.5 128.419 42.5781C128.132 42.6302 127.833 42.6823 127.52 42.7344C127.234 42.7604 126.947 42.8125 126.661 42.8906C126.374 42.9688 126.101 43.112 125.841 43.3203C125.632 43.2161 125.372 43.1641 125.059 43.1641C124.773 43.138 124.578 43.0339 124.473 42.8516C123.874 43.138 123.236 43.3203 122.559 43.3984C121.908 43.4766 121.244 43.5026 120.567 43.4766C120.124 43.4505 119.617 43.3854 119.044 43.2812C118.471 43.1771 117.898 43.0339 117.325 42.8516C116.752 42.6432 116.218 42.4089 115.723 42.1484C115.229 41.862 114.851 41.5234 114.591 41.1328C114.408 40.8724 114.278 40.5859 114.2 40.2734C114.122 39.9609 113.94 39.7266 113.653 39.5703C113.731 38.9714 113.822 38.3854 113.927 37.8125C114.031 37.2396 114.135 36.6536 114.239 36.0547C114.76 35.612 115.255 35.1432 115.723 34.6484C116.192 34.1536 116.635 33.6328 117.052 33.0859C117.546 32.8516 118.002 32.5651 118.419 32.2266C118.861 31.888 119.291 31.5495 119.708 31.2109C120.151 30.8464 120.58 30.4948 120.997 30.1562C121.44 29.8177 121.908 29.5182 122.403 29.2578C122.481 29.0755 122.585 28.9323 122.716 28.8281C122.872 28.6979 123.028 28.5807 123.184 28.4766C123.341 28.3464 123.484 28.2161 123.614 28.0859C123.744 27.9297 123.835 27.7474 123.887 27.5391C124.799 26.9922 125.593 26.3021 126.27 25.4688C126.947 24.6354 127.39 23.6979 127.598 22.6562C127.156 22.2917 126.648 22.0573 126.075 21.9531C125.528 21.8229 124.955 21.7318 124.356 21.6797C123.835 21.6536 123.289 21.6536 122.716 21.6797C122.169 21.7057 121.609 21.6927 121.036 21.6406C120.463 21.8229 119.864 21.9401 119.239 21.9922C118.64 22.0443 118.041 22.0964 117.442 22.1484C116.843 22.1745 116.244 22.2526 115.645 22.3828C115.072 22.487 114.512 22.6953 113.966 23.0078C113.861 23.0078 113.757 22.9948 113.653 22.9688C113.575 22.9427 113.484 22.9297 113.38 22.9297C112.546 22.9036 111.765 23.0729 111.036 23.4375C110.307 23.776 109.591 24.1146 108.887 24.4531C108.835 24.5573 108.809 24.6354 108.809 24.6875C108.809 24.8438 108.835 25 108.887 25.1562C108.966 25.2865 109.005 25.4297 109.005 25.5859C108.979 25.612 108.966 25.638 108.966 25.6641C108.966 25.6901 108.953 25.7161 108.927 25.7422C108.901 25.8724 108.861 25.9896 108.809 26.0938C108.783 26.1979 108.744 26.3151 108.692 26.4453C108.406 27.2786 108.249 28.099 108.223 28.9062C108.197 29.5833 108.197 30.2474 108.223 30.8984C108.249 31.5495 108.249 32.2135 108.223 32.8906C108.171 33.724 108.041 34.5052 107.833 35.2344C107.963 35.8594 108.08 36.5234 108.184 37.2266C108.289 37.9036 108.419 38.5807 108.575 39.2578C108.731 39.9349 108.914 40.599 109.122 41.25C109.356 41.875 109.656 42.474 110.02 43.0469C109.994 43.099 110.007 43.138 110.059 43.1641C110.111 43.1901 110.164 43.2031 110.216 43.2031H110.528C110.658 43.2031 110.71 43.2552 110.684 43.3594C110.736 43.4375 110.776 43.5156 110.802 43.5938C110.828 43.6458 110.88 43.6979 110.958 43.75C111.01 43.8281 111.01 43.9323 110.958 44.0625C110.932 44.5833 110.802 45.0651 110.567 45.5078C110.333 45.9505 110.19 46.4323 110.137 46.9531C109.825 47.0312 109.539 47.0703 109.278 47.0703C108.835 47.0443 108.445 46.9141 108.106 46.6797C107.768 46.4714 107.455 46.2109 107.169 45.8984C106.882 45.5859 106.609 45.2734 106.348 44.9609C106.088 44.6224 105.802 44.3359 105.489 44.1016C105.307 43.3724 105.124 42.5651 104.942 41.6797C104.786 40.7943 104.512 40.0391 104.122 39.4141C104.226 39.1797 104.278 38.8932 104.278 38.5547C104.304 38.0339 104.252 37.526 104.122 37.0312C104.018 36.5104 103.992 35.9896 104.044 35.4688C104.044 35.1823 104.07 34.8958 104.122 34.6094C104.2 34.3229 104.252 34.0365 104.278 33.75C104.304 33.3073 104.252 32.8776 104.122 32.4609C104.018 32.0443 103.979 31.6146 104.005 31.1719C104.031 30.9635 104.07 30.7682 104.122 30.5859C104.2 30.3776 104.304 30.1953 104.434 30.0391C104.304 29.7266 104.265 29.4271 104.317 29.1406C104.343 28.6979 104.395 28.2812 104.473 27.8906C104.552 27.5 104.604 27.1094 104.63 26.7188C104.63 26.5104 104.617 26.3151 104.591 26.1328C104.565 25.9245 104.526 25.7292 104.473 25.5469L104.122 25.4297C103.966 25.4297 103.809 25.4688 103.653 25.5469C103.523 25.625 103.406 25.7161 103.302 25.8203C103.197 25.9245 103.106 26.0156 103.028 26.0938C102.95 26.1458 102.872 26.1719 102.794 26.1719C102.742 26.1719 102.677 26.1719 102.598 26.1719C102.546 26.1458 102.494 26.1328 102.442 26.1328C102.39 26.1328 102.286 26.1849 102.13 26.2891C101.999 26.3932 101.83 26.5104 101.622 26.6406C101.44 26.7448 101.257 26.862 101.075 26.9922C100.893 27.0964 100.749 27.1615 100.645 27.1875C100.359 27.1354 100.124 27.0443 99.9422 26.9141C99.7859 26.7578 99.6297 26.6146 99.4734 26.4844C99.3432 26.3281 99.2 26.1979 99.0437 26.0938C98.8875 25.9635 98.6922 25.9115 98.4578 25.9375C98.3797 25.7812 98.3406 25.612 98.3406 25.4297C98.3146 25.2474 98.3146 25.0651 98.3406 24.8828V24.2578C98.5229 23.9193 98.7703 23.6458 99.0828 23.4375C99.3693 23.2031 99.6818 23.0078 100.02 22.8516L101.036 22.3828C101.374 22.2266 101.687 22.0312 101.973 21.7969H102.325C102.794 21.8229 103.197 21.7318 103.536 21.5234C103.901 21.3151 104.239 21.0807 104.552 20.8203C104.864 20.5339 105.177 20.2474 105.489 19.9609C105.828 19.6745 106.192 19.4531 106.583 19.2969C106.869 19.4271 107.169 19.5443 107.481 19.6484C107.794 19.7266 108.119 19.7786 108.458 19.8047C108.796 19.8047 109.148 19.7526 109.512 19.6484C109.877 19.5443 110.164 19.349 110.372 19.0625C110.502 19.1146 110.606 19.1536 110.684 19.1797C110.789 19.1797 110.906 19.1797 111.036 19.1797C111.427 19.2057 111.817 19.1536 112.208 19.0234C112.598 18.8672 112.976 18.6849 113.341 18.4766C113.861 18.5026 114.369 18.4766 114.864 18.3984C115.385 18.2943 115.893 18.1901 116.387 18.0859C116.908 17.9818 117.416 17.8906 117.911 17.8125C118.432 17.7083 118.953 17.6693 119.473 17.6953C120.333 17.7214 121.179 17.6432 122.012 17.4609C122.846 17.2786 123.692 17.2135 124.552 17.2656C125.151 17.2917 125.736 17.3438 126.309 17.4219C126.908 17.474 127.507 17.487 128.106 17.4609C128.445 17.6172 128.744 17.7604 129.005 17.8906C129.291 17.9948 129.643 18.0208 130.059 17.9688C130.893 18.6719 131.648 19.4922 132.325 20.4297V21.0938C132.299 21.6927 132.195 22.2786 132.012 22.8516C131.83 23.4245 131.609 23.9974 131.348 24.5703C131.114 25.1172 130.854 25.6641 130.567 26.2109C130.281 26.7318 130.007 27.2526 129.747 27.7734C128.054 29.3099 126.361 30.8333 124.669 32.3438C122.976 33.8542 121.231 35.3125 119.434 36.7188C119.382 36.9792 119.304 37.2135 119.2 37.4219C119.122 37.6302 119.07 37.8516 119.044 38.0859C119.044 38.2161 119.057 38.3203 119.083 38.3984C119.265 38.4505 119.421 38.5547 119.552 38.7109C119.708 38.8411 119.76 39.0234 119.708 39.2578H120.059C120.19 39.2578 120.255 39.3099 120.255 39.4141L120.88 39.4531C121.869 39.5052 122.859 39.4792 123.848 39.375C124.838 39.2708 125.828 39.1536 126.817 39.0234C127.833 38.8932 128.835 38.776 129.825 38.6719C130.815 38.5417 131.804 38.4635 132.794 38.4375C133.028 38.3594 133.276 38.2943 133.536 38.2422C133.796 38.1901 134.031 38.0859 134.239 37.9297H134.356C134.539 37.9297 134.669 37.9818 134.747 38.0859C134.851 38.1901 134.994 38.2552 135.177 38.2812C135.307 38.2812 135.437 38.2552 135.567 38.2031C135.723 38.151 135.88 38.112 136.036 38.0859C136.401 37.9818 136.778 37.9167 137.169 37.8906C137.585 37.8646 137.989 37.8255 138.38 37.7734C139.89 37.6432 141.387 37.5651 142.872 37.5391C144.356 37.487 145.841 37.2917 147.325 36.9531C147.455 37.1354 147.637 37.2656 147.872 37.3438C148.106 37.3958 148.354 37.4609 148.614 37.5391C148.874 37.5911 149.109 37.6562 149.317 37.7344C149.552 37.8125 149.708 37.9688 149.786 38.2031ZM169.595 19.3359C169.543 19.6484 169.465 19.9219 169.361 20.1562C169.283 20.3646 169.27 20.651 169.322 21.0156C169.061 21.0417 168.853 21.1328 168.697 21.2891C168.567 21.4193 168.449 21.5755 168.345 21.7578C168.267 21.9401 168.176 22.1354 168.072 22.3438C167.994 22.526 167.89 22.6953 167.759 22.8516C167.968 23.7891 168.085 24.7396 168.111 25.7031C168.137 26.6667 168.202 27.6172 168.306 28.5547C168.436 29.7526 168.632 30.9375 168.892 32.1094C169.179 33.2552 169.322 34.4271 169.322 35.625C169.322 35.9896 169.309 36.3281 169.283 36.6406C169.283 36.9531 169.283 37.2786 169.283 37.6172C169.283 37.8255 169.283 38.0469 169.283 38.2812C169.309 38.4896 169.322 38.6979 169.322 38.9062C169.322 39.6615 169.218 40.4167 169.009 41.1719C168.827 41.9271 168.684 42.6823 168.58 43.4375C168.267 43.724 167.994 44.0365 167.759 44.375C167.551 44.7135 167.33 45.026 167.095 45.3125C166.861 45.599 166.587 45.8464 166.275 46.0547C165.962 46.2891 165.572 46.4453 165.103 46.5234C165.025 46.7839 164.869 46.9792 164.634 47.1094C164.426 47.2396 164.244 47.4219 164.087 47.6562H164.009C163.358 47.6562 162.798 47.5651 162.33 47.3828C161.861 47.2005 161.418 46.9922 161.002 46.7578C160.611 46.5234 160.207 46.276 159.791 46.0156C159.374 45.7552 158.892 45.5469 158.345 45.3906C157.616 44.7917 156.952 44.1406 156.353 43.4375C155.754 42.7083 155.077 42.0573 154.322 41.4844C154.14 40.9635 153.892 40.5339 153.58 40.1953C153.293 39.8568 153.007 39.4661 152.72 39.0234C152.59 38.8411 152.486 38.6719 152.408 38.5156C152.356 38.3594 152.278 38.1771 152.173 37.9688C152.095 37.7604 151.965 37.6172 151.783 37.5391C151.627 37.4609 151.483 37.3698 151.353 37.2656C151.145 36.4583 150.845 35.7161 150.455 35.0391C150.064 34.362 149.608 33.7109 149.087 33.0859C148.931 33.3724 148.801 33.6849 148.697 34.0234C148.619 34.3359 148.541 34.6615 148.462 35C148.384 35.3125 148.28 35.638 148.15 35.9766C148.046 36.2891 147.903 36.5755 147.72 36.8359V36.9531C147.72 37.0833 147.772 37.1615 147.877 37.1875C147.981 37.2135 148.033 37.2917 148.033 37.4219C148.033 37.4479 148.02 37.474 147.994 37.5C147.994 37.526 147.994 37.5521 147.994 37.5781C147.864 37.6823 147.759 37.8125 147.681 37.9688C147.629 38.125 147.499 38.2161 147.291 38.2422C147.317 38.3724 147.33 38.5026 147.33 38.6328V38.9844C147.33 39.7396 147.239 40.4948 147.056 41.25C146.9 42.0052 146.822 42.7734 146.822 43.5547V44.0625C146.822 44.2448 146.835 44.4141 146.861 44.5703C146.913 44.7266 146.991 44.8828 147.095 45.0391C147.199 45.1953 147.252 45.3385 147.252 45.4688C147.252 45.651 147.173 45.8203 147.017 45.9766C147.199 46.1068 147.408 46.25 147.642 46.4062C147.877 46.5625 148.085 46.7318 148.267 46.9141C148.476 47.1224 148.645 47.3307 148.775 47.5391C148.905 47.7734 148.97 48.0208 148.97 48.2812C148.97 48.724 148.827 49.0365 148.541 49.2188C148.254 49.401 147.903 49.5443 147.486 49.6484C147.095 49.7526 146.679 49.8438 146.236 49.9219C145.819 50.026 145.468 50.1953 145.181 50.4297H145.064C144.752 50.4297 144.517 50.3385 144.361 50.1562C144.205 49.974 143.97 49.8828 143.658 49.8828C143.163 49.0755 142.824 48.1641 142.642 47.1484C142.46 46.1589 142.369 45.2083 142.369 44.2969C142.369 43.1771 142.473 42.0573 142.681 40.9375C142.864 39.8177 143.098 38.7109 143.384 37.6172C143.645 36.5234 143.931 35.4427 144.244 34.375C144.582 33.2812 144.895 32.1875 145.181 31.0938L145.22 30.9766C145.22 30.8464 145.181 30.7552 145.103 30.7031C145.051 30.651 145.025 30.5729 145.025 30.4688C145.025 30.4167 145.038 30.3906 145.064 30.3906C145.142 30.1302 145.22 29.8828 145.298 29.6484C145.403 29.4141 145.481 29.1536 145.533 28.8672C145.689 28.138 145.793 27.3958 145.845 26.6406C145.923 25.8594 145.962 25.0911 145.962 24.3359C145.989 23.5807 146.015 22.8255 146.041 22.0703C146.093 21.2891 146.184 20.5208 146.314 19.7656C146.522 19.5573 146.718 19.3359 146.9 19.1016C147.082 18.8672 147.317 18.6589 147.603 18.4766C148.124 18.5026 148.645 18.5807 149.166 18.7109C149.686 18.8411 150.181 19.0495 150.65 19.3359C150.962 20.4557 151.171 21.5755 151.275 22.6953C151.405 23.8151 151.614 24.9349 151.9 26.0547V26.1719C151.9 26.3021 151.965 26.3672 152.095 26.3672C152.252 26.3411 152.369 26.3802 152.447 26.4844C152.395 26.5625 152.356 26.6536 152.33 26.7578C152.33 26.862 152.33 26.9661 152.33 27.0703V27.7344C152.382 27.9427 152.447 28.1641 152.525 28.3984C152.603 28.6328 152.772 28.776 153.033 28.8281C153.163 29.6615 153.358 30.4297 153.619 31.1328C153.879 31.8359 154.179 32.513 154.517 33.1641C154.856 33.8151 155.22 34.4661 155.611 35.1172C156.002 35.7422 156.405 36.4062 156.822 37.1094C157.473 37.6042 158.033 38.1771 158.502 38.8281C158.97 39.4531 159.439 40.0651 159.908 40.6641C160.403 41.237 160.949 41.7448 161.548 42.1875C162.173 42.6302 162.981 42.9036 163.97 43.0078C164.101 42.9036 164.192 42.7604 164.244 42.5781L164.439 42.0312C164.517 41.849 164.595 41.6927 164.673 41.5625C164.778 41.4062 164.921 41.2891 165.103 41.2109C165.155 40.4818 165.207 39.7396 165.259 38.9844C165.337 38.2292 165.507 37.513 165.767 36.8359C165.637 36.6016 165.572 36.3151 165.572 35.9766C165.572 35.7161 165.585 35.4688 165.611 35.2344C165.663 35 165.689 34.7656 165.689 34.5312C165.689 34.0365 165.585 33.6328 165.377 33.3203C165.377 33.138 165.39 32.9557 165.416 32.7734C165.442 32.5651 165.52 32.3698 165.65 32.1875C165.442 31.6667 165.272 31.1198 165.142 30.5469C165.038 29.974 164.986 29.388 164.986 28.7891C164.986 28.4505 165.025 28.099 165.103 27.7344C164.947 27.3438 164.843 26.888 164.791 26.3672L164.634 24.7656C164.582 24.2188 164.504 23.7109 164.4 23.2422C164.296 22.7734 164.101 22.3958 163.814 22.1094C163.97 21.875 164.048 21.6016 164.048 21.2891C164.048 20.7682 163.97 20.2734 163.814 19.8047C163.658 19.3359 163.58 18.8411 163.58 18.3203C163.58 17.9557 163.658 17.5911 163.814 17.2266C164.387 17.2526 164.947 17.3177 165.494 17.4219C166.067 17.5 166.627 17.5391 167.173 17.5391C167.33 17.7474 167.512 17.9167 167.72 18.0469C167.929 18.1771 168.15 18.3073 168.384 18.4375C168.619 18.5417 168.84 18.6589 169.048 18.7891C169.283 18.9193 169.465 19.1016 169.595 19.3359Z" fill="white"/>
</g>
<defs>
<filter id="filter0_d" x="0.38916" y="0.742188" width="175.206" height="59.0156" filterUnits="userSpaceOnUse" color-interpolation-filters="sRGB">
<feFlood flood-opacity="0" result="BackgroundImageFix"/>
<feColorMatrix in="SourceAlpha" type="matrix" values="0 0 0 0 0 0 0 0 0 0 0 0 0 0 0 0 0 0 127 0"/>
<feOffset dx="2" dy="4"/>
<feGaussianBlur stdDeviation="2"/>
<feColorMatrix type="matrix" values="0 0 0 0 0 0 0 0 0 0 0 0 0 0 0 0 0 0 0.25 0"/>
<feBlend mode="normal" in2="BackgroundImageFix" result="effect1_dropShadow"/>
<feBlend mode="normal" in="SourceGraphic" in2="effect1_dropShadow" result="shape"/>
</filter>
</defs>
</svg>
